<?xml version="1.0" encoding="UTF-8" standalone="no" ?>
<!DOCTYPE svg PUBLIC "-//W3C//DTD SVG 1.1//EN" "http://www.w3.org/Graphics/SVG/1.1/DTD/svg11.dtd">
<svg xmlns="http://www.w3.org/2000/svg" xmlns:xlink="http://www.w3.org/1999/xlink" version="1.1" width="1080" height="1080" viewBox="0 0 1080 1080" xml:space="preserve">
<desc>Created with Fabric.js 5.2.4</desc>
<defs>
</defs>
<rect x="0" y="0" width="100%" height="100%" fill="transparent"></rect>
<g transform="matrix(1 0 0 1 540 540)" id="bd0ace67-a016-47d2-ae67-1e1595565baf"  >
<rect style="stroke: none; stroke-width: 1; stroke-dasharray: none; stroke-linecap: butt; stroke-dashoffset: 0; stroke-linejoin: miter; stroke-miterlimit: 4; fill: rgb(255,255,255); fill-rule: nonzero; opacity: 1; visibility: hidden;" vector-effect="non-scaling-stroke"  x="-540" y="-540" rx="0" ry="0" width="1080" height="1080" />
</g>
<g transform="matrix(1 0 0 1 540 540)" id="5b727443-a0cb-4aee-8ddb-1f44781efb69"  >
</g>
<g transform="matrix(14.3 0 0 14.3 539.22 569.12)" id="bba81825-28c3-4f28-b9af-5727bdce70df"  >
<path style="stroke: rgb(0,0,0); stroke-width: 0; stroke-dasharray: none; stroke-linecap: butt; stroke-dashoffset: 0; stroke-linejoin: miter; stroke-miterlimit: 4; fill: rgb(101,101,101); fill-rule: nonzero; opacity: 1;" vector-effect="non-scaling-stroke"  transform=" translate(-50, -50)" d="M 86.958 29.728 L 86.958 71.35300000000001 C 86.958 71.837 86.716 72.322 86.353 72.685 C 85.62599999999999 73.474 84.416 73.414 83.69 72.685 L 62.908 51.601 C 62.178000000000004 50.875 62.178000000000004 49.662 62.967 48.935 L 83.569 28.517000000000003 C 83.932 28.094000000000005 84.474 27.851000000000003 85.021 27.851000000000003 C 86.11 27.852 86.958 28.699 86.958 29.728 z M 16.254 28.396 L 37.035 48.935 C 37.760999999999996 49.662 37.760999999999996 50.874 37.035 51.601 L 16.374999999999996 72.624 C 16.009999999999998 72.98899999999999 15.466999999999997 73.292 14.919999999999996 73.292 C 13.888999999999996 73.292 13.041999999999996 72.382 13.041999999999996 71.35300000000001 L 13.041999999999996 29.728 C 13.041999999999996 29.244 13.225999999999996 28.759 13.588999999999997 28.396 C 14.315 27.668 15.525 27.668 16.254 28.396 z M 18.251 22.942 L 81.68900000000001 22.942 C 82.173 22.942 82.71600000000001 23.123 83.08000000000001 23.489 C 83.81000000000002 24.276 83.81000000000002 25.426000000000002 83.08000000000001 26.215 L 56.546 52.692 L 56.483 52.753 C 55.272 53.964 54.120999999999995 54.935 53.151999999999994 55.6 C 51.998999999999995 56.387 50.90899999999999 56.811 49.998999999999995 56.811 C 49.03099999999999 56.811 48.001 56.387 46.788999999999994 55.6 C 45.81999999999999 54.935 44.72899999999999 53.964 43.517999999999994 52.753 L 17.041 26.275 C 16.617 25.912 16.375 25.426 16.375 24.82 C 16.375 23.792 17.222 22.942 18.251 22.942 z M 62.057 52.995 L 82.9 73.837 C 83.20100000000001 74.2 83.447 74.685 83.447 75.169 C 83.447 76.199 82.595 77.047 81.568 77.047 L 18.556 77.047 C 18.009 77.108 17.464000000000002 76.926 17.101 76.502 C 16.314 75.77499999999999 16.314 74.564 17.101 73.83699999999999 L 37.882 53.05599999999999 L 37.943 52.99499999999999 C 38.669999999999995 52.26599999999999 39.882 52.26599999999999 40.61 52.99499999999999 L 44.002 56.32599999999999 C 44.789 57.11299999999999 45.699000000000005 57.721 46.607 58.14399999999999 L 46.728 58.14399999999999 C 47.699 58.56799999999999 48.788000000000004 58.74899999999999 49.999 58.74899999999999 C 51.151 58.74899999999999 52.242000000000004 58.566999999999986 53.273 58.14399999999999 C 54.241 57.78099999999999 55.151 57.17499999999999 55.936 56.32599999999999 L 59.33 53.05499999999999 L 59.33 52.99399999999999 C 60.119 52.267 61.33 52.267 62.057 52.995 z" stroke-linecap="round" />
</g>
</svg>